<svg id="Layer_1" enable-background="new 0 0 512 512" height="512" viewBox="0 0 512 512" width="512" xmlns="http://www.w3.org/2000/svg" xmlns:xlink="http://www.w3.org/1999/xlink" class="h-20 w-20"><linearGradient id="SVGID_1_" gradientUnits="userSpaceOnUse" x1="75.689" x2="436.312" y1="436.312" y2="75.688"><stop offset="0" stop-color="#dc9ebf"></stop><stop offset=".1339" stop-color="#dc9ebf"></stop><stop offset=".4257" stop-color="#a05dd5"></stop><stop offset=".6778" stop-color="#a05dd5"></stop><stop offset=".8776" stop-color="#6c31da"></stop><stop offset="1" stop-color="#6c31da"></stop></linearGradient><path d="m387.023 464.992c2.359 4.059.981 9.261-3.077 11.62-38.71 22.497-82.952 34.388-127.946 34.388-68.112 0-132.148-26.525-180.312-74.688-48.164-48.164-74.688-112.2-74.688-180.312 0-36.28 7.465-71.332 22.188-104.181 11.213-25.018 26.181-47.754 44.595-67.851l-27.694 2.223c-4.662.379-8.776-3.113-9.153-7.792-.375-4.68 3.113-8.777 7.794-9.153l50.305-4.037c2.474-.199 4.928.7 6.689 2.462s2.661 4.207 2.462 6.69l-4.035 50.307c-.355 4.448-4.076 7.82-8.463 7.821-.228 0-.457-.009-.688-.028-4.681-.375-8.168-4.473-7.793-9.152l2.146-26.75c-39.21 43.51-61.353 100.481-61.353 159.441 0 131.234 106.766 238 238 238 41.996 0 83.285-11.095 119.402-32.086 4.058-2.358 9.263-.982 11.621 3.078zm123.977-208.992c0-68.113-26.524-132.149-74.688-180.313-48.164-48.163-112.2-74.687-180.312-74.687-44.996 0-89.239 11.891-127.946 34.387-4.059 2.359-5.437 7.562-3.077 11.62 2.359 4.059 7.563 5.436 11.62 3.078 36.115-20.99 77.405-32.085 119.403-32.085 131.233 0 238 106.766 238 238 0 58.977-22.139 115.933-61.352 159.444l2.146-26.753c.374-4.679-3.113-8.777-7.792-9.152-4.685-.375-8.778 3.113-9.153 7.793l-4.035 50.306c-.199 2.483.7 4.929 2.462 6.69 1.602 1.6 3.766 2.489 6.01 2.489.227 0 .454-.009.68-.027l50.307-4.037c4.68-.375 8.169-4.473 7.793-9.153-.374-4.679-4.482-8.167-9.152-7.792l-27.695 2.222c18.369-20.044 33.308-42.717 44.514-67.667 14.775-32.901 22.267-68.014 22.267-104.363zm-105.075 96.741c1.595 1.594 2.49 3.756 2.49 6.011s-.896 4.417-2.49 6.011l-41.163 41.162c-3.322 3.319-8.703 3.318-12.021 0l-15.842-15.842c-13.492 8.167-28.004 14.182-43.292 17.944v22.394c0 4.694-3.806 8.5-8.5 8.5h-58.213c-4.694 0-8.5-3.806-8.5-8.5v-22.393c-15.285-3.761-29.797-9.776-43.292-17.945l-15.844 15.844c-1.595 1.594-3.756 2.49-6.011 2.49s-4.416-.896-6.011-2.49l-41.162-41.164c-3.319-3.319-3.319-8.701 0-12.021l15.844-15.843c-8.168-13.492-14.184-28.004-17.945-43.293h-22.394c-4.694 0-8.5-3.806-8.5-8.5v-58.213c0-4.694 3.806-8.5 8.5-8.5h22.393c3.761-15.283 9.776-29.794 17.946-43.291l-15.846-15.846c-1.594-1.594-2.489-3.756-2.489-6.01s.896-4.417 2.49-6.011l41.164-41.162c3.318-3.32 8.7-3.319 12.021 0l15.844 15.844c13.492-8.167 28.003-14.182 43.292-17.944v-22.394c0-4.694 3.806-8.5 8.5-8.5h58.213c4.694 0 8.5 3.806 8.5 8.5v22.395c15.284 3.762 29.795 9.777 43.29 17.945l15.846-15.846c1.594-1.594 3.756-2.49 6.01-2.49 2.256 0 4.416.896 6.012 2.49l41.162 41.164c3.319 3.319 3.319 8.701 0 12.021l-15.845 15.845c8.166 13.49 14.181 28 17.943 43.29h22.396c4.694 0 8.5 3.806 8.5 8.5v58.213c0 4.694-3.806 8.5-8.5 8.5h-22.396c-3.761 15.283-9.776 29.795-17.945 43.292zm-18.031 6.011-14.651-14.651c-2.865-2.866-3.311-7.357-1.061-10.729 10.164-15.232 17.126-32.03 20.693-49.928.793-3.976 4.282-6.838 8.336-6.838h20.71v-41.213h-20.71c-4.054 0-7.543-2.862-8.336-6.837-3.572-17.908-10.533-34.705-20.693-49.925-2.25-3.372-1.807-7.863 1.06-10.729l14.653-14.653-29.143-29.143-14.652 14.652c-2.866 2.865-7.357 3.312-10.729 1.06-15.229-10.163-32.027-17.125-49.927-20.694-3.976-.792-6.838-4.282-6.838-8.336v-20.709h-41.213v20.709c0 4.054-2.862 7.543-6.838 8.336-17.906 3.57-34.704 10.532-49.928 20.693-3.372 2.25-7.862 1.807-10.729-1.06l-14.651-14.653-29.144 29.142 14.654 14.654c2.866 2.866 3.309 7.357 1.06 10.729-10.165 15.231-17.128 32.029-20.695 49.926-.793 3.976-4.282 6.838-8.337 6.838h-20.706v41.213h20.706c4.055 0 7.544 2.862 8.337 6.838 3.571 17.907 10.533 34.706 20.694 49.929 2.25 3.372 1.807 7.863-1.06 10.729l-14.651 14.651 29.142 29.143 14.651-14.651c2.867-2.866 7.358-3.31 10.729-1.06 15.229 10.163 32.028 17.125 49.928 20.693 3.976.792 6.839 4.282 6.839 8.336v20.707h41.213v-20.707c0-4.054 2.862-7.543 6.838-8.336 17.905-3.571 34.704-10.534 49.927-20.694 3.373-2.25 7.862-1.807 10.729 1.06l14.651 14.651zm-32.698-102.751c0 54.698-44.5 99.198-99.197 99.198-54.698 0-99.199-44.5-99.199-99.198s44.501-99.198 99.199-99.198c54.697 0 99.197 44.5 99.197 99.198zm-17 0c0-45.324-36.873-82.198-82.197-82.198-45.325 0-82.199 36.874-82.199 82.198s36.874 82.198 82.199 82.198c45.324 0 82.197-36.874 82.197-82.198zm-25.389-44.212c7.645 7.645 7.645 20.084 0 27.73l-60.691 60.693c-3.704 3.703-8.621 5.742-13.847 5.743-6.314 0-12.248-3.04-15.933-8.149l-24.632-30.998c-6.722-8.453-5.311-20.8 3.144-27.521 3.452-2.744 7.779-4.255 12.183-4.255 6.013 0 11.603 2.697 15.341 7.398l11.541 14.523 45.163-45.164c3.705-3.704 8.629-5.743 13.866-5.743s10.16 2.039 13.865 5.743zm-12.022 12.02c-.631-.631-1.352-.764-1.844-.764-.494 0-1.214.132-1.846.765l-51.9 51.9c-1.713 1.713-4.073 2.617-6.496 2.476-2.417-.138-4.662-1.302-6.17-3.198l-17.467-21.981c-.7-.881-1.654-.976-2.032-.976-.408 0-1.019.098-1.603.562-1.117.889-1.304 2.52-.416 3.637l24.773 31.176c.11.137.217.278.315.422.71 1.016 1.751 1.126 2.167 1.126.484 0 1.196-.133 1.827-.764l60.69-60.692c1.02-1.017 1.02-2.672.002-3.689z" fill="url(#SVGID_1_)"></path></svg>