<svg id="Layer_1" enable-background="new 0 0 512 512" height="512" viewBox="0 0 512 512" width="512" xmlns="http://www.w3.org/2000/svg" xmlns:xlink="http://www.w3.org/1999/xlink" class="h-20 w-20"><linearGradient id="SVGID_1_" gradientUnits="userSpaceOnUse" x1="96.482" x2="532.376" y1="471.17" y2="35.276"><stop offset="0" stop-color="#dc9ebf"></stop><stop offset=".1339" stop-color="#dc9ebf"></stop><stop offset=".4257" stop-color="#a05dd5"></stop><stop offset=".6778" stop-color="#a05dd5"></stop><stop offset=".8776" stop-color="#6c31da"></stop><stop offset="1" stop-color="#6c31da"></stop></linearGradient><path d="m494.04 171.459h-83.185c-3.465-5.84-7.212-11.529-11.209-17.037h38.558c9.628 0 17.461-7.832 17.461-17.461v-31.691c0-9.627-7.833-17.459-17.461-17.459h-116.016c-31.049-16.041-65.965-24.531-101.136-24.531-58.911 0-114.297 22.941-155.954 64.6-41.656 41.655-64.596 97.04-64.596 155.952s22.94 114.297 64.596 155.953c41.658 41.658 97.043 64.6 155.954 64.6 39.436 0 77.997-10.498 111.786-30.398l87.958 32.699c2.088.775 4.233 1.154 6.352 1.154 4.653 0 9.169-1.828 12.625-5.283 5.03-5.029 6.614-12.301 4.134-18.98l-32.7-87.959c19.9-33.785 30.398-72.346 30.398-111.785 0-15.432-1.626-30.775-4.788-45.76h1.333l37.963 27.258c1.386.996 3.022 1.502 4.667 1.502 1.247 0 2.5-.291 3.65-.881 2.67-1.371 4.349-4.119 4.349-7.119v-20.76h5.262c9.628 0 17.459-7.834 17.459-17.461v-31.692c-.001-9.627-7.832-17.461-17.46-17.461zm-102.052 0h-19.68c-4.432-5.957-9.215-11.645-14.312-17.037h21.457c4.463 5.455 8.654 11.147 12.535 17.037zm-4.636 66.613c4.078 14.848 6.146 30.212 6.146 45.76 0 41.751-14.918 80.081-39.698 109.948-22.006-21.831-34.131-40.31-36.05-54.987-1.661-12.709 4.282-21.469 10.574-30.74 6.892-10.156 14.702-21.668 8.324-36.703-6.497-15.314-16.241-20.811-25.665-26.125-3.738-2.109-7.537-4.262-11.395-7.152h87.764zm-113.061-56.001c-6.18 4.698-10.117 10.774-11.439 17.729-1.906 10.023 1.634 21.652 10.238 33.629 10.62 14.781 21.385 20.852 30.033 25.73 8.686 4.898 14.424 8.135 18.795 18.438 2.843 6.701-.389 11.971-6.835 21.471-6.972 10.275-15.649 23.063-13.198 41.799 2.433 18.609 15.912 39.842 41.133 64.756-31.232 31.277-74.378 50.654-121.966 50.654-95.087 0-172.445-77.359-172.445-172.445 0-6.565.382-13.042 1.1-19.418 19.353-1.499 24.911 4.247 35.909 15.633 7.953 8.232 17.85 18.477 35.786 28.846 8.427 4.871 8.458 8.695 8.525 17.074.064 7.92.153 18.766 9.298 30.604l.188.236c11.819 14.164 13.25 25.363 14.512 35.244 1.105 8.654 2.248 17.602 10.06 25.324 3.26 3.498 7.48 5.348 12.01 5.348 1.404-.002 2.838-.18 4.281-.541 7.307-1.828 13.704-8.277 15.557-15.682l.086-.381c1.776-8.926 3.683-10.971 6.569-14.068 4.948-5.309 9.337-11.027 12.938-27.301l.193-.873-.004-.893c-.084-18.471 8.225-21.057 17.847-24.049 5.91-1.838 13.266-4.127 15.712-11.559 2.389-7.256-.952-15.904-11.917-30.844-2.412-3.287-4.595-6.752-6.705-10.104-7.128-11.316-14.497-23.016-29.462-24.451-11.466-1.098-17.179-4.627-22.704-8.039-9.92-6.125-18.354-9.914-36.67-2.828-9.781 3.789-13.83 5.354-25.35-13.174-2.511-4.037-3.051-7.225-1.606-9.477 2.206-3.441 9.692-6.445 19.15-5.246.131.02.31.055.537.096 26.452 4.838 52.06-4.152 72.106-25.309l.381-.434c11.135-13.6 13.479-29.566 6.601-44.959-6.466-14.469-21.118-27.566-37.683-35.198 13.18-3.583 26.979-5.646 41.202-5.972v25.521c0 9.629 7.831 17.461 17.459 17.461h5.262v20.76c0 3 1.679 5.748 4.349 7.119 1.151.59 2.403.881 3.65.881 1.645 0 3.281-.506 4.667-1.502l37.962-27.258h44.591c5.591 4.926 10.86 10.207 15.771 15.811-19.197-1.318-35.386-.906-48.283 1.227h-12.132c-7.2.002-13.391 4.382-16.059 10.614zm-124.064-55.46c19.174 1.724 41.551 16.529 48.7 32.525 4.367 9.773 2.956 19.217-4.192 28.074-16.168 16.945-36.542 24.178-57.411 20.359-.601-.109-1.041-.182-1.308-.217-15.011-1.902-28.645 2.99-34.725 12.469-2.851 4.443-6.448 13.805 1.486 26.564 13.85 22.27 25.129 27.225 44.713 19.646 12.315-4.768 15.502-2.795 22.488 1.52 6.081 3.756 14.408 8.898 29.584 10.354 6.81.652 10.866 6.598 17.449 17.051 2.26 3.586 4.597 7.297 7.345 11.041 7.157 9.754 8.947 14.195 9.39 15.908-1.251.574-3.461 1.26-5.038 1.752-10.11 3.145-28.839 8.973-29.093 38.467-2.888 12.639-5.777 15.74-8.833 19.018-4.442 4.768-8.04 9.393-10.508 21.607-.679 2.375-3.438 4.145-4.295 3.965 0 0-.114-.053-.316-.277l-.346-.357c-3.788-3.693-4.499-8.045-5.521-16.057-1.383-10.826-3.274-25.645-17.995-43.344-5.766-7.525-5.816-13.699-5.874-20.842-.078-9.512-.175-21.35-16.518-30.797-15.994-9.246-24.649-18.205-32.286-26.111-11.396-11.797-20.692-21.41-44.824-20.646 11.43-54.324 48.504-99.319 97.928-121.672zm289.438-21.341v31.691c0 .793-.669 1.461-1.461 1.461h-150.375c-1.674 0-3.306.525-4.666 1.502l-27.389 19.666v-13.168c0-4.418-3.582-8-8-8h-13.262c-.791 0-1.459-.668-1.459-1.461v-31.691c0-.791.668-1.459 1.459-1.459h85.802.063 117.826c.793 0 1.462.668 1.462 1.459zm-14.061 178.562c0 37.797-10.394 74.723-30.058 106.781-1.285 2.096-1.536 4.666-.68 6.971l34.041 91.564c.368.992-.041 1.686-.448 2.092-.407.408-1.1.814-2.091.447l-91.566-34.039c-2.299-.854-4.871-.605-6.969.68-32.063 19.662-68.987 30.057-106.782 30.057-112.79 0-204.55-91.762-204.55-204.553s91.76-204.553 204.55-204.553c19.821 0 39.548 2.921 58.44 8.531h-44.979c-5.966 0-11.237 3.012-14.388 7.59-103.482.502-187.518 84.833-187.518 188.432 0 103.908 84.536 188.445 188.445 188.445s188.445-84.537 188.445-188.445c0-15.508-1.882-30.854-5.602-45.76h16.563c3.414 14.94 5.147 30.302 5.147 45.76zm69.895-63.221c0 .791-.668 1.461-1.459 1.461h-13.262c-4.418 0-8 3.582-8 8v13.168l-27.389-19.666c-1.359-.977-2.992-1.502-4.666-1.502h-150.374c-.792 0-1.461-.67-1.461-1.461v-31.691c0-.791.669-1.461 1.461-1.461h203.691c.791 0 1.459.67 1.459 1.461zm-5.244-15.845c0 4.418-3.582 8-8 8h-22.309c-4.418 0-8-3.582-8-8s3.582-8 8-8h22.309c4.418 0 8 3.582 8 8zm-51.483 0c0 4.418-3.582 8-8 8h-128.64c-4.417 0-8-3.582-8-8s3.583-8 8-8h128.64c4.418 0 8 3.582 8 8zm-162.164-83.651c0 4.418-3.582 8-8 8h-22.311c-4.418 0-8-3.582-8-8s3.582-8 8-8h22.311c4.418 0 8 3.582 8 8zm149.81-8c4.418 0 8 3.582 8 8s-3.582 8-8 8h-128.636c-4.418 0-8-3.582-8-8s3.582-8 8-8zm67.622-108.955h-203.691c-9.628 0-17.461 7.834-17.461 17.461v31.691c0 9.627 7.833 17.461 17.461 17.461h147.801l37.963 27.258c1.386.994 3.022 1.502 4.667 1.502 1.247 0 2.499-.291 3.65-.883 2.67-1.369 4.349-4.117 4.349-7.117v-20.76h5.262c9.628 0 17.459-7.834 17.459-17.461v-31.691c-.001-9.627-7.832-17.461-17.46-17.461zm1.459 49.153c0 .791-.668 1.461-1.459 1.461h-13.262c-4.418 0-8 3.582-8 8v13.166l-27.388-19.665c-1.36-.977-2.992-1.502-4.666-1.502h-150.375c-.792 0-1.461-.67-1.461-1.461v-31.691c0-.791.669-1.461 1.461-1.461h203.691c.791 0 1.459.67 1.459 1.461zm-56.727-15.846c0 4.418-3.582 8-8 8h-128.64c-4.417 0-8-3.582-8-8s3.583-8 8-8h128.64c4.418 0 8 3.582 8 8zm51.483 0c0 4.418-3.582 8-8 8h-22.309c-4.418 0-8-3.582-8-8s3.582-8 8-8h22.309c4.418 0 8 3.582 8 8z" fill="url(#SVGID_1_)"></path></svg>