<svg id="Layer_1" enable-background="new 0 0 512 512" height="512" viewBox="0 0 512 512" width="512" xmlns="http://www.w3.org/2000/svg" xmlns:xlink="http://www.w3.org/1999/xlink" class="h-20 w-20"><linearGradient id="SVGID_1_" gradientUnits="userSpaceOnUse" x1="154.666" x2="393.96" y1="474.344" y2="59.873"><stop offset="0" stop-color="#dc9ebf"></stop><stop offset=".0393" stop-color="#dc9ebf"></stop><stop offset=".1969" stop-color="#a05dd5"></stop><stop offset=".3566" stop-color="#a05dd5"></stop><stop offset=".5166" stop-color="#a05dd5"></stop><stop offset=".6768" stop-color="#6c31da"></stop><stop offset=".8376" stop-color="#6c31da"></stop><stop offset="1" stop-color="#6c31da"></stop></linearGradient><path d="m355.07 255.963c0-70.353-57.236-127.59-127.588-127.59-70.354 0-127.59 57.237-127.59 127.59s57.236 127.589 127.59 127.589c70.352 0 127.588-57.236 127.588-127.589zm-127.588 109.589c-60.429 0-109.59-49.161-109.59-109.589s49.161-109.59 109.59-109.59c60.427 0 109.588 49.162 109.588 109.59s-49.161 109.589-109.588 109.589zm18.568-117.998c2.485 4.305 1.01 9.809-3.295 12.293l-6.272 3.621v7.245c0 4.971-4.029 9-9 9-3.965 0-7.324-2.567-8.523-6.127l-40.23 23.226c-1.418.818-2.965 1.208-4.492 1.208-3.11 0-6.135-1.614-7.802-4.501-2.485-4.305-1.011-9.809 3.294-12.294l48.754-28.147v-82.072c0-4.971 4.029-9 9-9s9 4.029 9 9v72.23c3.682-.741 7.584.884 9.566 4.318zm204.158 43.032c8.425-53.967-2.882-108.759-32.201-155.119-21.412-33.858-50.885-60.958-85.962-79.25l16.411-5.225c4.736-1.508 7.353-6.57 5.845-11.306s-6.57-7.354-11.306-5.845l-38.604 12.291c-2.473.787-4.484 2.603-5.521 4.981-1.036 2.378-.996 5.088.111 7.435l17.287 36.639c1.536 3.254 4.771 5.162 8.146 5.162 1.286 0 2.594-.277 3.834-.863 4.495-2.121 6.42-7.484 4.299-11.979l-6.705-14.211c31.331 16.808 57.685 41.327 76.952 71.793 26.616 42.086 37.108 91.724 29.939 140.734-5.053-.855-10.242-1.307-15.534-1.307-10.322 0-20.256 1.696-29.538 4.82 2.265-10.923 3.409-22.087 3.409-33.373 0-90.203-73.386-163.588-163.588-163.588-90.204 0-163.59 73.385-163.59 163.588s73.386 163.589 163.59 163.589c35.433 0 69.375-11.31 97.437-32.17 1.687 15.615 7.261 30.079 15.733 42.406-.772.504-1.541 1-2.304 1.482-46.827 29.613-102.384 39.218-156.437 27.046s-100.13-44.666-129.743-91.493c-61.132-96.667-32.222-225.047 64.445-286.179 41.5-26.244 91.108-36.931 139.68-30.093 4.925.688 9.474-2.735 10.167-7.657.692-4.922-2.735-9.474-7.657-10.167-52.796-7.432-106.708 4.182-151.811 32.704-50.889 32.184-86.202 82.258-99.43 141.001-13.228 58.742-2.789 119.12 29.395 170.011 32.183 50.892 82.258 86.204 141.001 99.433 16.611 3.741 33.343 5.589 49.964 5.588 42.157-.002 83.548-11.899 120.048-34.981 1.434-.907 2.886-1.857 4.345-2.829 16.748 16.392 39.655 26.515 64.886 26.515 51.185 0 92.827-41.642 92.827-92.826-.002-39.564-24.885-73.42-59.82-86.757zm-368.315-34.623c0-80.277 65.311-145.588 145.59-145.588 80.277 0 145.588 65.311 145.588 145.588 0 14.94-2.248 29.637-6.682 43.734-21.677 14.233-37.063 37.288-41.013 64.021-26.854 24.42-61.49 37.834-97.894 37.834-80.279 0-145.589-65.311-145.589-145.589zm335.306 196.205c-41.259 0-74.825-33.567-74.825-74.826s33.566-74.826 74.825-74.826c41.26 0 74.827 33.567 74.827 74.826s-33.567 74.826-74.827 74.826zm55.288-119.417c-3.994-3.995-9.306-6.195-14.955-6.195s-10.961 2.2-14.957 6.195l-42.522 42.523-10.67-13.429c-4.032-5.072-10.063-7.981-16.548-7.981-4.751 0-9.417 1.63-13.141 4.591-9.118 7.25-10.64 20.567-3.391 29.686l24.788 31.193c3.974 5.513 10.375 8.795 17.189 8.794 5.637 0 10.941-2.2 14.934-6.194l59.272-59.271c3.995-3.995 6.195-9.306 6.195-14.956s-2.199-10.961-6.194-14.956zm-12.727 17.185-59.272 59.272c-.762.762-1.621.921-2.207.921-.501 0-1.758-.132-2.613-1.358-.107-.153-.219-.302-.334-.448l-24.938-31.382c-1.074-1.351-.849-3.323.502-4.397.707-.562 1.444-.68 1.938-.68.457 0 1.609.115 2.456 1.18l16.945 21.326c1.596 2.009 3.973 3.241 6.534 3.387 2.555.147 5.063-.808 6.876-2.622l49.656-49.657c.804-.803 1.741-.923 2.229-.923.487 0 1.425.12 2.228.923s.923 1.741.923 2.229-.12 1.425-.923 2.229z" fill="url(#SVGID_1_)"></path></svg>